<svg width="13" height="17" viewBox="0 0 13 17" fill="none" xmlns="http://www.w3.org/2000/svg">
<path d="M8.5 4.25C9.67373 4.25 10.625 3.29873 10.625 2.125C10.625 0.95127 9.67373 0 8.5 0C7.32627 0 6.375 0.95127 6.375 2.125C6.375 3.29873 7.32627 4.25 8.5 4.25ZM7.48299 9.88623C7.94982 10.4414 8.77791 10.5201 9.34137 10.0596L12.2632 7.66826C12.8307 7.20408 12.9137 6.36703 12.4498 5.79959C11.986 5.23148 11.1486 5.14914 10.5802 5.61299L8.67299 7.17354L7.38105 5.6359C6.8684 5.02529 6.07883 4.70887 5.25605 4.79486C4.45287 4.87721 3.75361 5.33508 3.38439 6.02072L1.74516 9.07641C0.968203 10.5254 1.45662 12.2762 2.88037 13.1853L4.3682 14.3438H1.32812C0.594668 14.3438 0 14.9384 0 15.6719C0 16.4053 0.594668 17 1.32812 17H8.23437C9.36594 17 10.0197 15.5792 9.17336 14.7329L5.52566 11.0852L6.68113 8.93131L7.48299 9.88623Z" fill="#333333"/>
</svg>
