<svg width="30" height="30" viewBox="0 0 30 30" fill="none" xmlns="http://www.w3.org/2000/svg">
<path d="M28.1079 1.75836C27.4586 1.13626 26.5898 0.79594 25.6907 0.811549C24.7916 0.827158 23.9352 1.19743 23.3079 1.84169L19.0079 6.15002C18.5354 6.62031 17.9008 6.89185 17.2345 6.9089C16.5681 6.92595 15.9204 6.6872 15.4245 6.24169L14.2412 7.42502L22.4995 15.6584L23.6829 14.475C23.222 13.9787 22.9687 13.3248 22.9749 12.6476C22.9811 11.9703 23.2463 11.3211 23.7162 10.8334L28.0245 6.52502C28.6608 5.90016 29.026 5.05036 29.0416 4.15874C29.0572 3.26712 28.7219 2.40507 28.1079 1.75836Z" fill="#333333"/>
<path d="M18.483 13.9917L6.21628 26.2584C6.06439 26.4254 5.88014 26.5598 5.67472 26.6535C5.4693 26.7472 5.24698 26.7981 5.02127 26.8033C4.79556 26.8084 4.57115 26.7677 4.36167 26.6835C4.15218 26.5993 3.96199 26.4734 3.80263 26.3135C3.64327 26.1536 3.51806 25.9629 3.4346 25.7531C3.35115 25.5434 3.31118 25.3188 3.31714 25.0931C3.32309 24.8674 3.37483 24.6453 3.46923 24.4402C3.56363 24.2351 3.69871 24.0513 3.86629 23.9L16.1246 11.6667L14.9496 10.4917L2.68295 22.725C2.16364 23.2378 1.82696 23.9068 1.7246 24.6294C1.62223 25.352 1.75983 26.0882 2.11629 26.725L0.882952 27.9584C0.727743 28.1145 0.640625 28.3257 0.640625 28.5459C0.640625 28.766 0.727743 28.9772 0.882952 29.1334C1.03909 29.2886 1.2503 29.3757 1.47045 29.3757C1.69061 29.3757 1.90182 29.2886 2.05795 29.1334L3.25795 27.9334C3.77993 28.2605 4.38359 28.4338 4.99962 28.4334C5.44584 28.4332 5.88762 28.3447 6.29951 28.1731C6.71141 28.0015 7.08529 27.7501 7.39962 27.4334L19.6663 15.175L18.483 13.9917Z" fill="#333333"/>
</svg>
