<svg width="16" height="19" viewBox="0 0 16 19" fill="none" xmlns="http://www.w3.org/2000/svg">
<path d="M0.293 7.70709L7.293 0.707093C7.48053 0.519622 7.73484 0.414307 8 0.414307C8.26516 0.414307 8.51947 0.519622 8.707 0.707093L15.707 7.70709C15.8946 7.89459 15.9999 8.1489 16 8.41409V18.0001C16 18.2653 15.8946 18.5197 15.7071 18.7072C15.5196 18.8947 15.2652 19.0001 15 19.0001H10V12.0001H6V19.0001H1C0.734784 19.0001 0.48043 18.8947 0.292893 18.7072C0.105357 18.5197 0 18.2653 0 18.0001V8.41409C5.66374e-05 8.1489 0.105451 7.89459 0.293 7.70709Z" fill="#FFB800"/>
</svg>
