<svg width="34" height="34" fill="none" xmlns="http://www.w3.org/2000/svg"><path d="M22.1 17a5.1 5.1 0 11-10.2 0c0-.29.03-.575.083-.85H10.2v6.795c0 .472.383.855.855.855h11.892a.855.855 0 00.853-.855V16.15h-1.783c.053.275.083.56.083.85zM17 20.4a3.401 3.401 0 10-.002-6.802A3.401 3.401 0 0017 20.4zm4.08-6.97h2.039a.512.512 0 00.511-.51v-2.038a.512.512 0 00-.511-.512H21.08a.512.512 0 00-.511.512v2.038c.001.28.23.51.511.51zM17 .68a16.32 16.32 0 100 32.64A16.32 16.32 0 0017 .68zm8.5 22.931c0 1.039-.85 1.889-1.889 1.889H10.39A1.894 1.894 0 018.5 23.61V10.39c0-1.04.85-1.89 1.889-1.89h13.223c1.038 0 1.888.85 1.888 1.89V23.61z" fill="#333"/></svg>