<svg width="145" height="58" fill="none" xmlns="http://www.w3.org/2000/svg">
  <rect y="15" width="144.383" height="29.617" rx="3" fill="#000"/>
  <path d="M42.944 24.12v1.998h-3.978V36h-2.484v-9.882h-3.996V24.12h10.458zM44.511 36V23.058h2.466v5.472c.288-.576.684-1.002 1.188-1.278a3.385 3.385 0 011.71-.432c.624 0 1.176.12 1.656.36.492.24.876.606 1.152 1.098.288.48.432 1.086.432 1.818V36h-2.466v-5.184c0-.78-.15-1.314-.45-1.602-.3-.3-.684-.45-1.152-.45-.348 0-.684.084-1.008.252-.312.156-.57.42-.774.792-.192.36-.288.84-.288 1.44V36H44.51zm15.32.18c-.948 0-1.776-.186-2.484-.558a3.931 3.931 0 01-1.62-1.602c-.384-.696-.576-1.536-.576-2.52s.192-1.824.576-2.52a3.96 3.96 0 011.602-1.602c.696-.372 1.488-.558 2.376-.558.912 0 1.686.186 2.322.558.636.36 1.122.858 1.458 1.494.336.624.504 1.338.504 2.142 0 .24-.006.468-.018.684a6.77 6.77 0 01-.054.576h-7.182v-1.71h6.102l-1.188.432c0-.756-.174-1.338-.522-1.746-.336-.408-.816-.612-1.44-.612-.456 0-.852.108-1.188.324-.324.216-.57.54-.738.972-.168.42-.252.954-.252 1.602 0 .636.09 1.164.27 1.584.192.408.456.714.792.918.348.204.762.306 1.242.306.528 0 .954-.102 1.278-.306a2.07 2.07 0 00.756-.846l1.962.756c-.192.468-.486.87-.882 1.206a3.994 3.994 0 01-1.386.774 5.61 5.61 0 01-1.71.252zM73.714 36l-3.456-11.88h2.646l2.34 9.81 2.376-9.81h2.376l2.412 9.81 2.322-9.81h2.538L83.812 36h-2.79l-1.656-6.48-.558-2.808h-.036l-.558 2.808L76.576 36h-2.862zm18.495-9.18c.912 0 1.71.186 2.394.558a3.931 3.931 0 011.62 1.602c.396.696.594 1.536.594 2.52 0 .972-.198 1.812-.594 2.52a3.931 3.931 0 01-1.62 1.602c-.684.372-1.482.558-2.394.558-.9 0-1.698-.186-2.394-.558a4.047 4.047 0 01-1.638-1.602c-.384-.708-.576-1.548-.576-2.52 0-.984.192-1.824.576-2.52a4.047 4.047 0 011.638-1.602c.696-.372 1.494-.558 2.394-.558zm0 1.836c-.456 0-.846.108-1.17.324-.312.204-.552.516-.72.936-.168.42-.252.948-.252 1.584 0 .636.084 1.164.252 1.584.168.42.408.738.72.954.324.204.714.306 1.17.306.444 0 .822-.102 1.134-.306.324-.216.57-.534.738-.954.168-.42.252-.948.252-1.584 0-.636-.084-1.164-.252-1.584-.168-.42-.414-.732-.738-.936-.312-.216-.69-.324-1.134-.324zM98.88 36v-9h2.142l.162 1.764c.24-.624.588-1.104 1.044-1.44.468-.336 1.05-.504 1.746-.504.204 0 .39.018.558.054.168.036.306.084.414.144l-.288 2.07a1.905 1.905 0 00-.45-.108 4.911 4.911 0 00-.666-.036c-.36 0-.708.09-1.044.27a2.014 2.014 0 00-.828.792c-.216.348-.324.792-.324 1.332V36H98.88zm10.82.18c-.744 0-1.41-.186-1.998-.558-.576-.372-1.032-.906-1.368-1.602-.324-.696-.486-1.53-.486-2.502 0-.996.174-1.842.522-2.538.348-.708.816-1.242 1.404-1.602a3.748 3.748 0 012.016-.558c.792 0 1.446.228 1.962.684.516.456.852 1.044 1.008 1.764l-.234.288v-6.498h2.466V36h-2.214l-.162-2.736.306.144a3.345 3.345 0 01-.576 1.476c-.3.408-.678.726-1.134.954-.456.228-.96.342-1.512.342zm.72-1.89c.432 0 .804-.108 1.116-.324.312-.228.552-.558.72-.99.18-.432.27-.948.27-1.548 0-.576-.084-1.062-.252-1.458-.168-.408-.408-.72-.72-.936a1.88 1.88 0 00-1.098-.324c-.672 0-1.2.24-1.584.72-.372.468-.558 1.158-.558 2.07 0 .912.186 1.608.558 2.088.372.468.888.702 1.548.702z" fill="#FFB800"/>
  <rect x="6.17" width="6.17" height="46.894" rx="3" fill="#FFB800"/>
  <rect x="17.277" y="13.575" width="6.17" height="44.425" rx="3" fill="#FFB800"/>
</svg>
