<svg width="30" height="30" viewBox="0 0 30 30" fill="none" xmlns="http://www.w3.org/2000/svg">
<path d="M28.1084 1.75836C27.4591 1.13626 26.5903 0.79594 25.6912 0.811549C24.7921 0.827158 23.9357 1.19743 23.3084 1.84169L19.0084 6.15002C18.5359 6.62031 17.9013 6.89185 17.2349 6.9089C16.5685 6.92595 15.9209 6.6872 15.425 6.24169L14.2417 7.42502L22.5 15.6584L23.6834 14.475C23.2225 13.9787 22.9692 13.3248 22.9754 12.6476C22.9816 11.9703 23.2468 11.3211 23.7167 10.8334L28.025 6.52502C28.6613 5.90016 29.0265 5.05036 29.0421 4.15874C29.0577 3.26712 28.7224 2.40507 28.1084 1.75836Z" fill="#333333"/>
<path d="M18.4834 13.9917L6.21677 26.2584C6.06488 26.4254 5.88063 26.5598 5.67521 26.6535C5.46978 26.7472 5.24747 26.7981 5.02176 26.8033C4.79605 26.8084 4.57164 26.7677 4.36215 26.6835C4.15267 26.5993 3.96248 26.4734 3.80312 26.3135C3.64375 26.1536 3.51855 25.9629 3.43509 25.7531C3.35163 25.5434 3.31167 25.3188 3.31762 25.0931C3.32358 24.8674 3.37532 24.6453 3.46972 24.4402C3.56412 24.2351 3.6992 24.0513 3.86677 23.9L16.1251 11.6667L14.9501 10.4917L2.68344 22.725C2.16413 23.2378 1.82745 23.9068 1.72509 24.6294C1.62272 25.352 1.76032 26.0882 2.11677 26.725L0.88344 27.9584C0.728231 28.1145 0.641113 28.3257 0.641113 28.5459C0.641113 28.766 0.728231 28.9772 0.88344 29.1334C1.03958 29.2886 1.25079 29.3757 1.47094 29.3757C1.6911 29.3757 1.90231 29.2886 2.05844 29.1334L3.25844 27.9334C3.78042 28.2605 4.38408 28.4338 5.00011 28.4334C5.44633 28.4332 5.8881 28.3447 6.3 28.1731C6.7119 28.0015 7.08577 27.7501 7.40011 27.4334L19.6668 15.175L18.4834 13.9917Z" fill="#333333"/>
</svg>
