<svg width="16" height="16" viewBox="0 0 16 16" fill="none" xmlns="http://www.w3.org/2000/svg">
<path d="M14.5255 0.986602L14.9189 1.37994C15.4609 1.9226 15.3789 2.8846 14.7342 3.5286L6.62288 11.6399L3.99488 12.6013C3.66488 12.7226 3.34355 12.5653 3.27821 12.2513C3.25613 12.1374 3.26653 12.0195 3.30821 11.9113L4.28821 9.2606L12.3769 1.17127C13.0215 0.527269 13.9835 0.444602 14.5255 0.987269V0.986602ZM6.26888 1.79327C6.35643 1.79327 6.44312 1.81051 6.524 1.84402C6.60489 1.87752 6.67838 1.92663 6.74028 1.98853C6.80219 2.05044 6.8513 2.12393 6.8848 2.20481C6.9183 2.2857 6.93555 2.37239 6.93555 2.45994C6.93555 2.54748 6.9183 2.63417 6.8848 2.71506C6.8513 2.79594 6.80219 2.86943 6.74028 2.93134C6.67838 2.99325 6.60489 3.04235 6.524 3.07586C6.44312 3.10936 6.35643 3.1266 6.26888 3.1266H3.60221C3.24859 3.1266 2.90945 3.26708 2.6594 3.51713C2.40936 3.76717 2.26888 4.10631 2.26888 4.45994V12.4599C2.26888 12.8136 2.40936 13.1527 2.6594 13.4027C2.90945 13.6528 3.24859 13.7933 3.60221 13.7933H11.6022C11.9558 13.7933 12.295 13.6528 12.545 13.4027C12.7951 13.1527 12.9355 12.8136 12.9355 12.4599V9.79327C12.9355 9.61646 13.0058 9.44689 13.1308 9.32187C13.2558 9.19684 13.4254 9.1266 13.6022 9.1266C13.779 9.1266 13.9486 9.19684 14.0736 9.32187C14.1986 9.44689 14.2689 9.61646 14.2689 9.79327V12.4599C14.2689 13.1672 13.9879 13.8455 13.4878 14.3456C12.9877 14.8457 12.3095 15.1266 11.6022 15.1266H3.60221C2.89497 15.1266 2.21669 14.8457 1.7166 14.3456C1.2165 13.8455 0.935547 13.1672 0.935547 12.4599V4.45994C0.935547 3.75269 1.2165 3.07441 1.7166 2.57432C2.21669 2.07422 2.89497 1.79327 3.60221 1.79327H6.26888Z" fill="#333333"/>
</svg>
