<svg width="17" height="17" viewBox="0 0 17 17" fill="none" xmlns="http://www.w3.org/2000/svg">
<path d="M16.7344 8.5C16.7344 13.0487 13.0474 16.7344 8.5 16.7344C3.9526 16.7344 0.265625 13.0487 0.265625 8.5C0.265625 3.95393 3.9526 0.265625 8.5 0.265625C13.0474 0.265625 16.7344 3.95393 16.7344 8.5ZM8.72097 2.98828C6.9115 2.98828 5.75742 3.75053 4.85118 5.10525C4.73377 5.28076 4.77305 5.51746 4.94132 5.64506L6.09344 6.51864C6.26626 6.64969 6.51249 6.61851 6.64677 6.44818C7.23991 5.69586 7.64661 5.25961 8.54941 5.25961C9.22771 5.25961 10.0667 5.69616 10.0667 6.35392C10.0667 6.85117 9.65623 7.10653 8.98649 7.48203C8.20542 7.91988 7.17188 8.46484 7.17188 9.82812V9.96094C7.17188 10.181 7.35028 10.3594 7.57031 10.3594H9.42969C9.64972 10.3594 9.82812 10.181 9.82812 9.96094V9.91668C9.82812 8.97165 12.5902 8.9323 12.5902 6.375C12.5902 4.44915 10.5925 2.98828 8.72097 2.98828ZM8.5 11.2227C7.6578 11.2227 6.97266 11.9078 6.97266 12.75C6.97266 13.5922 7.6578 14.2773 8.5 14.2773C9.3422 14.2773 10.0273 13.5922 10.0273 12.75C10.0273 11.9078 9.3422 11.2227 8.5 11.2227Z" fill="#5C5A5A"/>
</svg>
