<svg width="18" height="20" viewBox="0 0 18 20" fill="none" xmlns="http://www.w3.org/2000/svg">
<path d="M5.79 13.2981L7.11075 12.8917L15.063 4.30768C15.1257 4.23911 15.1606 4.14698 15.1602 4.05118C15.1598 3.95539 15.1241 3.86361 15.0607 3.79568L14.5845 3.28208C14.5537 3.24834 14.517 3.22149 14.4763 3.20308C14.4357 3.18467 14.3921 3.17507 14.348 3.17485C14.3038 3.17463 14.2601 3.18378 14.2193 3.20178C14.1786 3.21978 14.1416 3.24626 14.1105 3.27968L6.17925 11.8413L5.78925 13.2973L5.79 13.2981ZM15.5272 2.26448L16.0035 2.77888C16.6605 3.48848 16.6665 4.63328 16.0155 5.33568L7.821 14.1821L4.998 15.0493C4.82565 15.1007 4.6412 15.0772 4.48512 14.9837C4.32905 14.8903 4.2141 14.7346 4.1655 14.5509C4.12934 14.4188 4.12882 14.2785 4.164 14.1461L4.98525 11.0741L13.158 2.25088C13.3134 2.08396 13.4984 1.95172 13.7022 1.86188C13.9061 1.77203 14.1246 1.72637 14.3451 1.72756C14.5657 1.72875 14.7838 1.77677 14.9867 1.86882C15.1897 1.96086 15.3734 2.09509 15.5272 2.26368V2.26448ZM6.888 3.18688C7.26 3.18688 7.5615 3.51248 7.5615 3.91408C7.56209 4.00901 7.54514 4.10314 7.5116 4.19108C7.47807 4.27902 7.42861 4.35904 7.36606 4.42658C7.30351 4.49412 7.22909 4.54784 7.14706 4.58468C7.06503 4.62152 6.977 4.64075 6.888 4.64128H4.194C3.45 4.64128 2.847 5.29248 2.847 6.09488V14.8197C2.847 15.6229 3.45 16.2741 4.194 16.2741H12.276C13.02 16.2741 13.6238 15.6229 13.6238 14.8197V11.9117C13.6238 11.5101 13.9253 11.1845 14.2972 11.1845C14.6692 11.1845 14.9708 11.5101 14.9708 11.9125V14.8197C14.9708 16.4261 13.764 17.7285 12.276 17.7285H4.194C2.706 17.7285 1.5 16.4261 1.5 14.8197V6.09488C1.5 4.48928 2.706 3.18688 4.194 3.18688H6.888Z" fill="#333333"/>
</svg>
