<svg width="34" height="34" fill="none" xmlns="http://www.w3.org/2000/svg"><path d="M17 .68C7.987.68.68 7.987.68 17S7.987 33.32 17 33.32c9.014 0 16.32-7.307 16.32-16.32S26.014.68 17 .68zm6.639 13.369c.006.14.008.279.008.415 0 4.25-3.231 9.147-9.144 9.147a9.069 9.069 0 01-4.927-1.445c.25.03.507.043.767.043a6.438 6.438 0 003.992-1.376 3.22 3.22 0 01-3.003-2.23c.482.092.978.072 1.45-.056a3.216 3.216 0 01-2.578-3.152v-.039c.433.24.93.386 1.457.403a3.212 3.212 0 01-.995-4.294 9.14 9.14 0 006.625 3.36 3.214 3.214 0 015.477-2.932 6.454 6.454 0 002.04-.78 3.23 3.23 0 01-1.412 1.78 6.455 6.455 0 001.846-.509 6.517 6.517 0 01-1.603 1.665z" fill="#333"/></svg>