<svg width="47" height="47" viewBox="0 0 47 47" fill="none" xmlns="http://www.w3.org/2000/svg">
<circle cx="23.5" cy="23.5" r="23.5" fill="#FFB800"/>
<path d="M18.8318 27.7829L20.6182 27.2957L31.3741 17.0046C31.459 16.9224 31.5062 16.812 31.5056 16.6971C31.5051 16.5823 31.4567 16.4722 31.3711 16.3908L30.7269 15.7751C30.6853 15.7346 30.6356 15.7024 30.5806 15.6804C30.5257 15.6583 30.4667 15.6468 30.407 15.6465C30.3473 15.6462 30.2882 15.6572 30.233 15.6788C30.1779 15.7004 30.1278 15.7321 30.0858 15.7722L19.3583 26.0364L18.8308 27.7819L18.8318 27.7829ZM32.002 14.5551L32.6462 15.1718C33.5348 16.0225 33.543 17.395 32.6624 18.237L21.5789 28.8427L17.7606 29.8823C17.5274 29.944 17.278 29.9157 17.0669 29.8037C16.8558 29.6917 16.7003 29.5051 16.6346 29.2848C16.5856 29.1264 16.5849 28.9582 16.6325 28.7995L17.7433 25.1166L28.7975 14.5388C29.0077 14.3387 29.2579 14.1801 29.5336 14.0724C29.8093 13.9647 30.1049 13.91 30.4032 13.9114C30.7015 13.9128 30.9965 13.9704 31.271 14.0807C31.5455 14.1911 31.794 14.352 32.002 14.5541V14.5551ZM20.3169 15.6609C20.8201 15.6609 21.2279 16.0513 21.2279 16.5327C21.2287 16.6465 21.2057 16.7594 21.1604 16.8648C21.115 16.9703 21.0481 17.0662 20.9635 17.1472C20.8789 17.2281 20.7783 17.2925 20.6673 17.3367C20.5564 17.3809 20.4373 17.4039 20.3169 17.4045H16.6731C15.6668 17.4045 14.8512 18.1852 14.8512 19.1472V29.6071C14.8512 30.57 15.6668 31.3507 16.6731 31.3507H27.6045C28.6108 31.3507 29.4274 30.57 29.4274 29.6071V26.1208C29.4274 25.6393 29.8352 25.249 30.3384 25.249C30.8416 25.249 31.2493 25.6393 31.2493 26.1217V29.6071C31.2493 31.5329 29.6171 33.0943 27.6045 33.0943H16.6731C14.6605 33.0943 13.0293 31.5329 13.0293 29.6071V19.1472C13.0293 17.2223 14.6605 15.6609 16.6731 15.6609H20.3169V15.6609Z" fill="black"/>
</svg>
